mtllib material.mtl
usemtl material_0
v -29.85907400 27.60769100 212.98419200
v -71.85907000 27.60769100 212.99208100
v -74.85851300 30.60758600 215.99275200
v -26.85851100 30.60758600 215.98371900
v -71.85907000 27.60769100 212.99208100
v -71.86697400 27.60915600 170.99208100
v -74.86753800 30.60925900 167.99275200
v -74.85851300 30.60758600 215.99275200
v -71.86697400 27.60915600 170.99208100
v -29.86697400 27.60915600 170.98419200
v -26.86753800 30.60925900 167.98371900
v -74.86753800 30.60925900 167.99275200
v -29.86697400 27.60915600 170.98419200
v -29.85907400 27.60769100 212.98419200
v -26.85851100 30.60758600 215.98371900
v -26.86753800 30.60925900 167.98371900
v -71.86697400 3.60915500 170.99125700
v -71.86697400 27.60915600 170.99208100
v -71.85907700 3.60769100 212.99124100
v -71.85907000 27.60769100 212.99208100
v -71.85907700 3.60769100 212.99124100
v -71.85907000 27.60769100 212.99208100
v -29.85907400 3.60769100 212.98335300
v -29.85907400 27.60769100 212.98419200
v 123.14355500 30.60720300 226.95550500
v -116.85643800 30.60720300 227.00065600
v 123.13697100 30.60842300 191.95550500
v 88.13038600 30.60964200 156.96209700
v -81.86960600 30.60964200 156.99406400
v -116.86302200 30.60842300 192.00065600
v 81.14148700 30.60758600 215.96340900
v 81.13246200 30.60925900 167.96340900
v 33.14148700 30.60758600 215.97244300
v 33.13246200 30.60925900 167.97244300
v -74.85851300 30.60758600 215.99275200
v -26.85851100 30.60758600 215.98371900
v -74.86753800 30.60925900 167.99275200
v -26.86753800 30.60925900 167.98371900
v 78.13302600 27.60915600 170.96386700
v 78.14092300 27.60769100 212.96386700
v 81.14148700 30.60758600 215.96340900
v 81.13246200 30.60925900 167.96340900
v 78.14092300 27.60769100 212.96386700
v 36.14092600 27.60769100 212.97177100
v 33.14148700 30.60758600 215.97244300
v 81.14148700 30.60758600 215.96340900
v 36.14092600 27.60769100 212.97177100
v 36.13302200 27.60915600 170.97177100
v 33.13246200 30.60925900 167.97244300
v 33.14148700 30.60758600 215.97244300
v 36.13302200 27.60915600 170.97177100
v 78.13302600 27.60915600 170.96386700
v 81.13246200 30.60925900 167.96340900
v 33.13246200 30.60925900 167.97244300
v 36.14092300 3.60769100 212.97093200
v 36.14092600 27.60769100 212.97177100
v 78.14092300 3.60769100 212.96302800
v 78.14092300 27.60769100 212.96386700
v 78.14092300 3.60769100 212.96302800
v 78.14092300 27.60769100 212.96386700
v 78.13302600 3.60915500 170.96302800
v 78.13302600 27.60915600 170.96386700
v -29.86697600 3.60915500 170.98335300
v -71.86697400 3.60915500 170.99125700
v -74.86753800 0.60925900 167.99171400
v -26.86753800 0.60925900 167.98268100
v -71.85907700 3.60769100 212.99124100
v -29.85907400 3.60769100 212.98335300
v -26.85851100 0.60758600 215.98268100
v -74.85851300 0.60758600 215.99171400
v -71.86697400 3.60915500 170.99125700
v -71.85907700 3.60769100 212.99124100
v -74.85851300 0.60758600 215.99171400
v -74.86753800 0.60925900 167.99171400
v -29.85907400 3.60769100 212.98335300
v -29.86697600 3.60915500 170.98335300
v -26.86753800 0.60925900 167.98268100
v -26.85851100 0.60758600 215.98268100
v -29.85907400 3.60769100 212.98335300
v -29.85907400 27.60769100 212.98419200
v -29.86697600 3.60915500 170.98335300
v -29.86697400 27.60915600 170.98419200
v 123.13697100 0.60842300 191.95446800
v 88.13038600 0.60964300 156.96104400
v -81.86960600 0.60964300 156.99302700
v -116.86302200 0.60842300 191.99960300
v -116.85643800 0.60720300 226.99960300
v 123.14355500 0.60720300 226.95446800
v 81.14148700 0.60758600 215.96235700
v 33.14148700 0.60758600 215.97139000
v 33.13246200 0.60925900 167.97139000
v 81.13246200 0.60925900 167.96237200
v -74.85851300 0.60758600 215.99171400
v -74.86753800 0.60925900 167.99171400
v -26.86753800 0.60925900 167.98268100
v -26.85851100 0.60758600 215.98268100
v 78.14092300 3.60769100 212.96302800
v 78.13302600 3.60915500 170.96302800
v 81.13246200 0.60925900 167.96237200
v 81.14148700 0.60758600 215.96235700
v 36.14092300 3.60769100 212.97093200
v 78.14092300 3.60769100 212.96302800
v 81.14148700 0.60758600 215.96235700
v 33.14148700 0.60758600 215.97139000
v 36.13302200 3.60915500 170.97093200
v 36.14092300 3.60769100 212.97093200
v 33.14148700 0.60758600 215.97139000
v 33.13246200 0.60925900 167.97139000
v 78.13302600 3.60915500 170.96302800
v 36.13302200 3.60915500 170.97093200
v 33.13246200 0.60925900 167.97139000
v 81.13246200 0.60925900 167.96237200
v 78.13302600 3.60915500 170.96302800
v 78.13302600 27.60915600 170.96386700
v 36.13302200 3.60915500 170.97093200
v 36.13302200 27.60915600 170.97177100
v 36.13302200 3.60915500 170.97093200
v 36.13302200 27.60915600 170.97177100
v 36.14092300 3.60769100 212.97093200
v 36.14092600 27.60769100 212.97177100
v -29.86697600 3.60915500 170.98335300
v -29.86697400 27.60915600 170.98419200
v -71.86697400 3.60915500 170.99125700
v -71.86697400 27.60915600 170.99208100
v 123.14355500 30.60720300 226.95550500
v -116.85643800 30.60720300 227.00065600
v -116.85643800 0.60720300 226.99960300
v 123.14355500 0.60720300 226.95446800
v -116.85643800 30.60720300 227.00065600
v -116.86302200 30.60842300 192.00065600
v -116.86302200 0.60842300 191.99960300
v -116.85643800 0.60720300 226.99960300
v -116.86302200 30.60842300 192.00065600
v -81.86960600 30.60964200 156.99406400
v -81.86960600 0.60964300 156.99302700
v -116.86302200 0.60842300 191.99960300
v -81.86960600 30.60964200 156.99406400
v 88.13038600 30.60964200 156.96209700
v 88.13038600 0.60964300 156.96104400
v -81.86960600 0.60964300 156.99302700
v 88.13038600 30.60964200 156.96209700
v 123.13697100 30.60842300 191.95550500
v 123.13697100 0.60842300 191.95446800
v 88.13038600 0.60964300 156.96104400
v 123.13697100 30.60842300 191.95550500
v 123.14355500 30.60720300 226.95550500
v 123.14355500 0.60720300 226.95446800
v 123.13697100 0.60842300 191.95446800
vn -0.00013300 0.70713100 -0.70708200
vn -0.00013300 0.70713100 -0.70708200
vn -0.00013300 0.70713100 -0.70708200
vn -0.00013300 0.70713100 -0.70708200
vn 0.70710700 0.70710700 -0.00010800
vn 0.70710700 0.70710700 -0.00010800
vn 0.70710700 0.70710700 -0.00010800
vn 0.70710700 0.70710700 -0.00010800
vn 0.00013300 0.70708200 0.70713100
vn 0.00013300 0.70708200 0.70713100
vn 0.00013300 0.70708200 0.70713100
vn 0.00013300 0.70708200 0.70713100
vn -0.70710700 0.70710700 0.00015800
vn -0.70710700 0.70710700 0.00015800
vn -0.70710700 0.70710700 0.00015800
vn -0.70710700 0.70710700 0.00015800
vn 1.00000000 -0.00000000 -0.00018800
vn 1.00000000 -0.00000000 -0.00018800
vn 1.00000000 -0.00000000 -0.00018800
vn 1.00000000 -0.00000000 -0.00018800
vn -0.00018800 0.00003500 -1.00000000
vn -0.00018800 0.00003500 -1.00000000
vn -0.00018800 0.00003500 -1.00000000
vn -0.00018800 0.00003500 -1.00000000
vn 0.00000000 1.00000000 0.00003500
vn 0.00000000 1.00000000 0.00003500
vn 0.00000000 1.00000000 0.00003500
vn 0.00000000 1.00000000 0.00003500
vn 0.00000000 1.00000000 0.00003500
vn 0.00000000 1.00000000 0.00003500
vn 0.00000000 1.00000000 0.00003500
vn 0.00000000 1.00000000 0.00003500
vn 0.00000000 1.00000000 0.00003500
vn 0.00000000 1.00000000 0.00003500
vn 0.00000000 1.00000000 0.00003500
vn 0.00000000 1.00000000 0.00003500
vn 0.00000000 1.00000000 0.00003500
vn 0.00000000 1.00000000 0.00003500
vn -0.70710700 0.70710700 0.00015800
vn -0.70710700 0.70710700 0.00015800
vn -0.70710700 0.70710700 0.00015800
vn -0.70710700 0.70710700 0.00015800
vn -0.00013300 0.70713100 -0.70708200
vn -0.00013300 0.70713100 -0.70708200
vn -0.00013300 0.70713100 -0.70708200
vn -0.00013300 0.70713100 -0.70708200
vn 0.70710700 0.70710700 -0.00010800
vn 0.70710700 0.70710700 -0.00010800
vn 0.70710700 0.70710700 -0.00010800
vn 0.70710700 0.70710700 -0.00010800
vn 0.00013300 0.70708200 0.70713100
vn 0.00013300 0.70708200 0.70713100
vn 0.00013300 0.70708200 0.70713100
vn 0.00013300 0.70708200 0.70713100
vn -0.00018800 0.00003500 -1.00000000
vn -0.00018800 0.00003500 -1.00000000
vn -0.00018800 0.00003500 -1.00000000
vn -0.00018800 0.00003500 -1.00000000
vn -1.00000000 0.00000000 0.00018800
vn -1.00000000 0.00000000 0.00018800
vn -1.00000000 0.00000000 0.00018800
vn -1.00000000 0.00000000 0.00018800
vn 0.00013300 -0.70713100 0.70708200
vn 0.00013300 -0.70713100 0.70708200
vn 0.00013300 -0.70713100 0.70708200
vn 0.00013300 -0.70713100 0.70708200
vn -0.00013300 -0.70708200 -0.70713100
vn -0.00013300 -0.70708200 -0.70713100
vn -0.00013300 -0.70708200 -0.70713100
vn -0.00013300 -0.70708200 -0.70713100
vn 0.70710700 -0.70710700 -0.00015800
vn 0.70710700 -0.70710700 -0.00015800
vn 0.70710700 -0.70710700 -0.00015800
vn 0.70710700 -0.70710700 -0.00015800
vn -0.70710700 -0.70710700 0.00010800
vn -0.70710700 -0.70710700 0.00010800
vn -0.70710700 -0.70710700 0.00010800
vn -0.70710700 -0.70710700 0.00010800
vn -1.00000000 0.00000000 0.00018800
vn -1.00000000 0.00000000 0.00018800
vn -1.00000000 0.00000000 0.00018800
vn -1.00000000 0.00000000 0.00018800
vn -0.00000000 -1.00000000 -0.00003500
vn -0.00000000 -1.00000000 -0.00003500
vn -0.00000000 -1.00000000 -0.00003500
vn -0.00000000 -1.00000000 -0.00003500
vn -0.00000000 -1.00000000 -0.00003500
vn -0.00000000 -1.00000000 -0.00003500
vn -0.00000000 -1.00000000 -0.00003500
vn -0.00000000 -1.00000000 -0.00003500
vn -0.00000000 -1.00000000 -0.00003500
vn -0.00000000 -1.00000000 -0.00003500
vn -0.00000000 -1.00000000 -0.00003500
vn -0.00000000 -1.00000000 -0.00003500
vn -0.00000000 -1.00000000 -0.00003500
vn -0.00000000 -1.00000000 -0.00003500
vn -0.70710700 -0.70710700 0.00010800
vn -0.70710700 -0.70710700 0.00010800
vn -0.70710700 -0.70710700 0.00010800
vn -0.70710700 -0.70710700 0.00010800
vn -0.00013300 -0.70708200 -0.70713100
vn -0.00013300 -0.70708200 -0.70713100
vn -0.00013300 -0.70708200 -0.70713100
vn -0.00013300 -0.70708200 -0.70713100
vn 0.70710700 -0.70710700 -0.00015800
vn 0.70710700 -0.70710700 -0.00015800
vn 0.70710700 -0.70710700 -0.00015800
vn 0.70710700 -0.70710700 -0.00015800
vn 0.00013300 -0.70713100 0.70708200
vn 0.00013300 -0.70713100 0.70708200
vn 0.00013300 -0.70713100 0.70708200
vn 0.00013300 -0.70713100 0.70708200
vn 0.00018800 -0.00003500 1.00000000
vn 0.00018800 -0.00003500 1.00000000
vn 0.00018800 -0.00003500 1.00000000
vn 0.00018800 -0.00003500 1.00000000
vn 1.00000000 -0.00000000 -0.00018800
vn 1.00000000 -0.00000000 -0.00018800
vn 1.00000000 -0.00000000 -0.00018800
vn 1.00000000 -0.00000000 -0.00018800
vn 0.00018800 -0.00003500 1.00000000
vn 0.00018800 -0.00003500 1.00000000
vn 0.00018800 -0.00003500 1.00000000
vn 0.00018800 -0.00003500 1.00000000
vn 0.00018800 -0.00003500 1.00000000
vn 0.00018800 -0.00003500 1.00000000
vn 0.00018800 -0.00003500 1.00000000
vn 0.00018800 -0.00003500 1.00000000
vn -1.00000000 0.00000000 0.00018800
vn -1.00000000 0.00000000 0.00018800
vn -1.00000000 0.00000000 0.00018800
vn -1.00000000 0.00000000 0.00018800
vn -0.70724000 0.00002500 -0.70697400
vn -0.70724000 0.00002500 -0.70697400
vn -0.70724000 0.00002500 -0.70697400
vn -0.70724000 0.00002500 -0.70697400
vn -0.00018800 0.00003500 -1.00000000
vn -0.00018800 0.00003500 -1.00000000
vn -0.00018800 0.00003500 -1.00000000
vn -0.00018800 0.00003500 -1.00000000
vn 0.70697400 0.00002500 -0.70724000
vn 0.70697400 0.00002500 -0.70724000
vn 0.70697400 0.00002500 -0.70724000
vn 0.70697400 0.00002500 -0.70724000
vn 1.00000000 -0.00000000 -0.00018800
vn 1.00000000 -0.00000000 -0.00018800
vn 1.00000000 -0.00000000 -0.00018800
vn 1.00000000 -0.00000000 -0.00018800
f 4//4 1//1 2//2
f 4//4 2//2 3//3
f 5//5 6//6 7//7
f 5//5 7//7 8//8
f 10//10 11//11 12//12
f 10//10 12//12 9//9
f 15//15 13//13 14//14
f 15//15 16//16 13//13
f 20//20 17//17 18//18
f 20//20 19//19 17//17
f 23//23 21//21 22//22
f 23//23 22//22 24//24
f 37//37 29//29 30//30
f 35//35 30//30 26//26
f 35//35 37//37 30//30
f 38//38 29//29 37//37
f 36//36 35//35 26//26
f 32//32 28//28 34//34
f 33//33 38//38 36//36
f 33//33 34//34 38//38
f 27//27 32//32 31//31
f 27//27 28//28 32//32
f 25//25 31//31 33//33
f 25//25 27//27 31//31
f 26//26 25//25 33//33
f 26//26 33//33 36//36
f 28//28 29//29 38//38
f 28//28 38//38 34//34
f 41//41 39//39 40//40
f 41//41 42//42 39//39
f 46//46 43//43 44//44
f 46//46 44//44 45//45
f 47//47 48//48 49//49
f 47//47 49//49 50//50
f 52//52 53//53 54//54
f 52//52 54//54 51//51
f 57//57 55//55 56//56
f 57//57 56//56 58//58
f 61//61 59//59 60//60
f 62//62 61//61 60//60
f 63//63 64//64 65//65
f 66//66 63//63 65//65
f 68//68 69//69 70//70
f 68//68 70//70 67//67
f 71//71 72//72 73//73
f 71//71 73//73 74//74
f 77//77 75//75 76//76
f 77//77 78//78 75//75
f 81//81 79//79 80//80
f 82//82 81//81 80//80
f 94//94 86//86 85//85
f 93//93 87//87 86//86
f 93//93 86//86 94//94
f 95//95 94//94 85//85
f 96//96 87//87 93//93
f 90//90 96//96 95//95
f 90//90 95//95 91//91
f 92//92 91//91 84//84
f 83//83 89//89 92//92
f 83//83 92//92 84//84
f 88//88 90//90 89//89
f 88//88 89//89 83//83
f 84//84 95//95 85//85
f 84//84 91//91 95//95
f 87//87 90//90 88//88
f 87//87 96//96 90//90
f 99//99 97//97 98//98
f 99//99 100//100 97//97
f 102//102 103//103 104//104
f 102//102 104//104 101//101
f 105//105 106//106 107//107
f 105//105 107//107 108//108
f 112//112 109//109 110//110
f 112//112 110//110 111//111
f 114//114 115//115 113//113
f 114//114 116//116 115//115
f 120//120 117//117 118//118
f 120//120 119//119 117//117
f 122//122 123//123 121//121
f 122//122 124//124 123//123
f 128//128 125//125 126//126
f 128//128 126//126 127//127
f 129//129 130//130 131//131
f 129//129 131//131 132//132
f 134//134 135//135 136//136
f 134//134 136//136 133//133
f 138//138 139//139 140//140
f 138//138 140//140 137//137
f 143//143 144//144 141//141
f 142//142 143//143 141//141
f 145//145 146//146 147//147
f 145//145 147//147 148//148

